
<svg width="24" height="24" viewBox="0 0 24 24" fill="none" xmlns="http://www.w3.org/2000/svg">
<path d="M12 21.5999C11.7 21.5999 11.4 21.4874 11.175 21.2999C10.3125 20.5499 9.45 19.8374 8.7 19.1999C6.525 17.3624 4.6125 15.7499 3.3 14.1749C1.8 12.3749 1.125 10.7249 1.125 8.8874C1.125 7.1249 1.725 5.4749 2.85 4.2749C3.975 3.0749 5.5125 2.3999 7.2 2.3999C8.4375 2.3999 9.6 2.8124 10.6125 3.5624C11.025 3.8624 11.3625 4.2374 11.7 4.6499C11.85 4.8374 12.1125 4.8374 12.2625 4.6499C12.6 4.2374 12.975 3.8999 13.35 3.5624C14.3625 2.7749 15.525 2.3999 16.7625 2.3999C18.45 2.3999 19.9875 3.0749 21.1125 4.2749C22.2375 5.4749 22.8375 7.1249 22.8375 8.8874C22.8375 10.7249 22.1625 12.3749 20.6625 14.1374C19.35 15.7124 17.4375 17.3249 15.2625 19.1624C14.5125 19.7999 13.65 20.5124 12.7875 21.2624C12.6 21.4874 12.3 21.5999 12 21.5999Z" fill="#F56060"/>
</svg>
