<svg width="24" height="24" viewBox="0 0 24 24" fill="none" xmlns="http://www.w3.org/2000/svg">
<path d="M12 22.125C11.5125 22.125 11.025 21.9375 10.65 21.6C9.78749 20.85 8.99999 20.175 8.28749 19.575C6.14999 17.7375 4.27499 16.2 2.96249 14.625C1.42499 12.75 0.674988 10.9875 0.674988 9C0.674988 7.0875 1.34999 5.2875 2.54999 3.975C3.78749 2.625 5.51249 1.875 7.34999 1.875C8.73749 1.875 10.05 2.325 11.175 3.1875C11.475 3.4125 11.7375 3.6375 12 3.9375C12.2625 3.675 12.525 3.4125 12.825 3.1875C13.95 2.325 15.225 1.875 16.65 1.875C18.525 1.875 20.2125 2.625 21.45 3.975C22.6875 5.2875 23.325 7.0875 23.325 9C23.325 10.9875 22.6125 12.75 21.0375 14.625C19.725 16.2 17.85 17.775 15.7125 19.575C15 20.175 14.175 20.8875 13.3125 21.6C12.975 21.9375 12.4875 22.125 12 22.125ZM7.34999 3.5625C5.96249 3.5625 4.68749 4.125 3.74999 5.1C2.84999 6.1125 2.36249 7.5 2.36249 9C2.36249 10.5375 2.96249 12 4.23749 13.5375C5.47499 15 7.27499 16.5375 9.33749 18.3C10.05 18.9 10.875 19.6125 11.7375 20.3625C11.8875 20.475 12.1125 20.475 12.2625 20.3625C13.125 19.6125 13.95 18.9375 14.6625 18.3C16.7625 16.5 18.5625 15 19.7625 13.5375C21.0375 12 21.6375 10.5375 21.6375 9C21.6375 7.5 21.1125 6.1125 20.2125 5.1375C19.275 4.125 18 3.5625 16.65 3.5625C15.6375 3.5625 14.7 3.9 13.875 4.5C13.5375 4.7625 13.2375 5.0625 12.9375 5.4C12.7125 5.6625 12.375 5.85 12 5.85C11.625 5.85 11.325 5.7 11.0625 5.4C10.7625 5.0625 10.4625 4.7625 10.125 4.5C9.33749 3.9 8.39999 3.5625 7.34999 3.5625Z" fill="#9CA3AF"/>
</svg>
