<svg width="28" height="28" viewBox="0 0 28 28" fill="none" xmlns="http://www.w3.org/2000/svg">
<rect width="28" height="28" rx="14" />
<path fill-rule="evenodd" clip-rule="evenodd" d="M20.6667 14C20.6667 17.6819 17.6819 20.6667 14 20.6667C10.3181 20.6667 7.33333 17.6819 7.33333 14C7.33333 12.0088 8.20626 10.2216 9.59029 9H18.4097C19.7937 10.2216 20.6667 12.0088 20.6667 14ZM22 14C22 18.4183 18.4183 22 14 22C9.58172 22 6 18.4183 6 14C6 9.58172 9.58172 6 14 6C18.4183 6 22 9.58172 22 14ZM12.3333 14.3333C12.3333 15.2538 11.5871 16 10.6667 16C9.74619 16 9 15.2538 9 14.3333C9 13.4129 9.74619 12.6667 10.6667 12.6667C11.5871 12.6667 12.3333 13.4129 12.3333 14.3333ZM17.3333 16C18.2538 16 19 15.2538 19 14.3333C19 13.4129 18.2538 12.6667 17.3333 12.6667C16.4129 12.6667 15.6667 13.4129 15.6667 14.3333C15.6667 15.2538 16.4129 16 17.3333 16Z" fill="#9CA3AF"/>
</svg>
