<svg width="28" height="28" viewBox="0 0 28 28" fill="none" xmlns="http://www.w3.org/2000/svg">
<rect width="28" height="28" rx="14" fill="#EFF9F3"/>
<path fill-rule="evenodd" clip-rule="evenodd" d="M20.6667 14C20.6667 17.6819 17.6819 20.6667 14 20.6667C10.3181 20.6667 7.33333 17.6819 7.33333 14C7.33333 10.3181 10.3181 7.33333 14 7.33333C17.6819 7.33333 20.6667 10.3181 20.6667 14ZM22 14C22 18.4183 18.4183 22 14 22C9.58172 22 6 18.4183 6 14C6 9.58172 9.58172 6 14 6C18.4183 6 22 9.58172 22 14ZM14 18.5C16.24 18.5 17.6 17.8333 18 17.5L10 17.5C10.4 17.8333 11.76 18.5 14 18.5ZM12.3333 14.0002C12.3333 14.9206 11.5871 15.6668 10.6667 15.6668C9.74619 15.6668 9 14.9206 9 14.0002C9 13.0797 9.74619 12.3335 10.6667 12.3335C11.5871 12.3335 12.3333 13.0797 12.3333 14.0002ZM17.3333 15.3333C18.2538 15.3333 19 14.5871 19 13.6667C19 12.7462 18.2538 12 17.3333 12C16.4129 12 15.6667 12.7462 15.6667 13.6667C15.6667 14.5871 16.4129 15.3333 17.3333 15.3333Z" fill="#C1D9D3"/>
</svg>
