<svg width="24" height="24" viewBox="0 0 24 24" fill="none" xmlns="http://www.w3.org/2000/svg">
<path d="M11.9636 7.30908H11.9272C11.4909 7.30908 11.0909 7.67272 11.0909 8.14545C11.0909 8.61817 11.4545 8.98181 11.9272 8.98181H11.9636C12.4 8.98181 12.8 8.61817 12.8 8.14545C12.8 7.67272 12.4363 7.30908 11.9636 7.30908Z" fill="#9CA3AF"/>
<path d="M11.9636 10.1816C11.5273 10.1816 11.1273 10.5453 11.1273 11.018V16.618C11.1273 17.0544 11.4909 17.4544 11.9636 17.4544C12.4 17.4544 12.8 17.0907 12.8 16.618V10.9816C12.8 10.5453 12.4363 10.1816 11.9636 10.1816Z" fill="#9CA3AF"/>
<path d="M11.9636 1.01807C5.89089 1.01807 0.945435 5.92716 0.945435 11.9999C0.945435 18.0726 5.89089 23.0181 11.9636 23.0181C18.0363 23.0181 22.9454 18.0726 22.9454 11.9999C22.9454 5.92716 18.0363 1.01807 11.9636 1.01807ZM11.9636 21.3817C6.79998 21.3817 2.5818 17.1635 2.5818 11.9999C2.5818 6.83625 6.79998 2.61807 11.9636 2.61807C17.1273 2.61807 21.3091 6.83625 21.3091 11.9999C21.3091 17.1635 17.1273 21.3817 11.9636 21.3817Z" fill="#9CA3AF"/>
</svg>
