<svg width="28" height="28" viewBox="0 0 28 28" fill="none" xmlns="http://www.w3.org/2000/svg">
<path fill-rule="evenodd" clip-rule="evenodd" d="M8.66667 9.33333L14 9.33333L19.3333 9.33333C20.0697 9.33333 20.6667 9.93029 20.6667 10.6667V18C20.6667 18.7364 20.0697 19.3333 19.3333 19.3333H16.6683C16.6677 19.3333 16.6672 19.3333 16.6667 19.3333H11.3333C11.3328 19.3333 11.3323 19.3333 11.3317 19.3333H8.66667C7.93029 19.3333 7.33333 18.7364 7.33333 18V10.6667C7.33333 9.93029 7.93029 9.33333 8.66667 9.33333ZM10 20.6667L8.66667 20.6667C7.19391 20.6667 6 19.4728 6 18V10.6667C6 9.19391 7.19391 8 8.66667 8H12.6667V7.33333C12.6667 6.59695 13.2636 6 14 6C14.7364 6 15.3333 6.59695 15.3333 7.33333V8H19.3333C20.8061 8 22 9.19391 22 10.6667V18C22 19.4728 20.8061 20.6667 19.3333 20.6667L18 20.6667C18 21.403 17.403 22 16.6667 22H11.3333C10.597 22 10 21.403 10 20.6667ZM12 14.3333C12 15.2538 11.2538 16 10.3333 16C9.41286 16 8.66667 15.2538 8.66667 14.3333C8.66667 13.4129 9.41286 12.6667 10.3333 12.6667C11.2538 12.6667 12 13.4129 12 14.3333ZM19.3333 14.3333C19.3333 15.2538 18.5871 16 17.6667 16C16.7462 16 16 15.2538 16 14.3333C16 13.4129 16.7462 12.6667 17.6667 12.6667C18.5871 12.6667 19.3333 13.4129 19.3333 14.3333Z" fill="#9CA3AF"/>
</svg>
